<?xml version="1.0" encoding="UTF-8"?><svg id="Layer_1" xmlns="http://www.w3.org/2000/svg" width="60" height="426.14" viewBox="0 0 60 426.14"><defs><style>.premium-hand-svg__min{fill:#231f20;}</style></defs><path class="premium-hand-svg__min" d="m31.5,400.6c0-.9-.7-1.6-1.6-1.6s-1.6.7-1.6,1.6.7,1.6,1.6,1.6h0c.9,0,1.6-.7,1.6-1.6ZM29.9,0h0c.9,0,1.7,0,1.9,7.1.9,30.6-2.8,73.9,17.1,86.7,2.7,1.8,2.4,3.4.4,4.4-8.8,4.2-14.8,12.5-16.1,22.2,5.5,2,8.4,8.1,6.4,13.7-1.1,3.1-3.6,5.5-6.7,6.5,9.5,92,10.8,168.2,1.7,234.9,13.9,2.5,23.1,15.9,20.5,29.7-2.5,13.9-15.9,23.1-29.7,20.5-13.9-2.5-23.1-15.9-20.5-29.7,1.9-10.4,10.1-18.6,20.5-20.5-9.1-66.7-8-143,1.6-234.9-5.6-1.8-8.7-7.8-6.9-13.4,1-3.1,3.4-5.6,6.5-6.8-1.2-9.6-7.3-18-16.1-22.2-2.1-.9-2.4-2.6.4-4.4C30.8,81,27.1,37.7,28,7.1c.2-7.1,1-7.1,1.9-7.1h0Z"/></svg>