<?xml version="1.0" encoding="UTF-8"?><svg id="Layer_1" xmlns="http://www.w3.org/2000/svg" width="48.47" height="312.54" viewBox="0 0 48.47 312.54"><defs><style>.cls-1{fill:#231f20;}</style></defs><path class="cls-1" d="m40.04,238.9l-5.9,27.3c12.2,5.5,17.7,19.8,12.2,32s-19.8,17.7-32,12.2c-12.2-5.5-17.7-19.8-12.2-32,2.4-5.4,6.8-9.8,12.2-12.2l-5.9-27.3S22.44,8.6,22.84,1.8c0-2.3,2.6-2.5,2.7,0,.3,6.1,14.4,237.1,14.4,237.1h.1Zm-7,49.5h0c0-4.9-3.9-8.8-8.8-8.8s-8.8,3.9-8.8,8.8,3.9,8.8,8.8,8.8h.1c4.8,0,8.7-4,8.7-8.8h0Z"/></svg>