<?xml version="1.0" encoding="UTF-8"?><svg id="Layer_1" xmlns="http://www.w3.org/2000/svg" width="60" height="426.14" viewBox="0 0 60 426.14"><defs><style>.premium-hand-svg__min{fill:#231f20;}</style></defs><path class="premium-hand-svg__min" d="m31.9,99.34c0,32.4,7.7,47.9,25.5,58,1.8,1,1.6,2.8.2,3.4-9.1,4.1-20.9,17.7-23.2,29,5.3,2.6,7.4,9,4.8,14.3-1,2-2.6,3.7-4.6,4.7,10.1,75.8,9.9,97.1,2.7,158.3,16.1,4,25.8,20.3,21.8,36.4s-20.3,25.8-36.4,21.8S-3.1,404.94.9,388.84c2.7-10.7,11.1-19.1,21.8-21.8-7.1-61.2-7.4-82.5,2.7-158.3-5.2-2.7-7.3-9.1-4.6-14.4,1-2,2.7-3.7,4.8-4.7-2.4-11.3-14.1-24.9-23.2-29-1.4-.7-1.6-2.4.2-3.4,17.9-10.1,25.6-25.6,25.5-58,0-2.7.8-3.6,1.9-3.6s1.9.9,1.9,3.6h0v.1Zm9.3,297h0c0-6.2-5-11.2-11.2-11.2s-11.2,5-11.2,11.2,5,11.2,11.2,11.2h0c6.2,0,11.2-5,11.2-11.2h0Z"/></svg>