<?xml version="1.0" encoding="UTF-8"?><svg id="Layer_1" xmlns="http://www.w3.org/2000/svg" width="66.43" height="482.6" viewBox="0 0 66.43 482.6"><defs><style>.cls-1{fill:#231f20;}</style></defs><path class="cls-1" d="m44.23,172.3c4.5,0,5.9.4,1.9,4.4-2,2-1.1,2.7.9,4.2,2.7,2,2.7,3.3-.8,4.7-16.7,6.7-25.5,26-4.5,54.5,10.5,14.3,15.4,37,6,52.6-2.3,3.8-1.5,3.4,2.7,4,5.1.8,5.8,1.4,2.4,5.2-1,1.1-1,2.8,0,3.8.3.3.7.5,1.1.6,1.9.9,3.7,1.7,5.2,2.5,2.4,1.2,1.7,2.7-.2,3.4s-2.9,1-5.4,2.1c-1.9.8-2.2,2.1-1.1,4,3.6,6.4,3.4,12.4-2.8,18.3-1.3.8-1.7,2.4-.9,3.7.1.2.3.4.4.6,4.2,5.8,9.3,10.8,15.3,14.7,1.7,1.1,1.3,2.3,0,2.7-2,.6-4.2,1.3-5.6,1.7-2.3.7-.8,2.1.2,3,3.2,2.7,2.8,3.3-.2,4-4.4,1-5.8.9-4.2,3.1,7.7,10.2,4.4,23.9-4,32.8-2.1,2.2-1,4.7.6,4.7h3.6c.6,0,1.1.5,1.1,1.1h0v5.7c0,.6-.5,1.1-1.1,1.1h-7.6c-2.4,0-5.4,6.1-1.3,7.6,12.2,4.3,20.5,15.9,20.5,28.9,0,16.9-13.7,30.6-30.5,30.6s-30.3-13.8-30.3-30.7c0-13,8.3-24.6,20.6-28.9,4-1.4,1-7.6-1.3-7.6h-7.6c-.6,0-1.1-.5-1.1-1h0v-5.7c0-.6.5-1.1,1.1-1.1h5.9c1.6,0,3-2.3.6-4.2-5.4-4.3-9.2-13.8-2.8-18.9,1.7-1.3,1.7-2.1,0-3.6-3.8-3.1-4.5-8.7-1.4-12.5,0,0,.1-.2.2-.2.9-1.2,1.5-4.2-2.4-7.1-2-1.4-2.7-2.7.2-3.6s3.7-1.8.9-3.9-3.4-2.7-4.7-3.6-1.3-2.1,1.3-2.3c2.6-.2,4-.4,7.1-.8,1.9-.2,1.2-.7-.2-3-4.2-7.2-2.5-19.2,2.4-24.4,1.1-1.2.8-3.4-2.4-4.1s-3.6-1.9-1.9-3,1.3-3.2-1.7-4.1-4.1-2.3,0-4.3c38.3-19.2,27.7-61.8-3.3-61.8s-5.6-1.2-.5-4.3c4.3-2.7,4.9-2.7,2.4-4.5s-3.4-3,.4-4.1c3.8-1.1,5.8-.5,3.9-4.5-5.4-11.6-2.4-29.3,4.3-44.3,8-18.9,11.2-39.6,9.2-60.1-.4-3.4-1.8-3.8-3.7-3-3.7,1.6-8.8,2.8-6.3-1.9,5-9.2,8.8-30.6,8.8-42.7V6c0-2.4,1.9-6,3.9-6s4,3.6,4,6v66.7c0,12,3.9,33.4,8.8,42.7,2.7,4.7-2.4,2.8-6.3,1.9-1.5-.4-1.9-.4-1.7,2.1.9,14.1.6,35.5-3.2,48.6-1.1,4-.4,4.3,4.7,4.3h.4Zm-14.6,211.3h0c2.7,1.1,4,4.3,2.9,7-.8,1.9-2.5,3.1-4.6,3.3-2.1.2-3.5,1.3-1.2,2.9,10,6.9,23.2-1.1,23.2-13.7s-13.7-20.5-23.2-13.7c-2.2,1.6-.9,2.7,1.2,2.9,3,.2,5.2,2.8,5,5.7-.1,2-1.4,3.8-3.3,4.6-.6.3-.6.7,0,1.1h0v-.1Zm17.4-32.8h0c-2.4-2.6-4.7-5.4-6.7-8.4-2-2.9-3.1-5.9,4.2-10.9,2.7-2.1,3.1-5.9,1.1-8.6-1.1-1.4-2.7-2.2-4.4-2.3-6.9-.4-13,4.6-13.9,11.4-1.2,10.1,6.7,19.9,18.8,22.1,3.2.6,2.5-1.5.9-3.4h0v.1h0Zm-8.9,101.2h0c0-1.1-.9-1.9-1.9-1.9s-1.9.9-1.9,1.9.9,1.9,1.9,1.9,1.9-.9,1.9-1.9h0Z"/></svg>