<?xml version="1.0" encoding="UTF-8"?><svg id="Layer_1" xmlns="http://www.w3.org/2000/svg" width="62.15" height="520.9" viewBox="0 0 62.15 520.9"><defs><style>.premium-hand-svg__min{fill:#231f20;fill-rule:evenodd;}</style></defs><path class="premium-hand-svg__min" d="m44.31,478.01c24.5-35.8,22.8-78.9-2.1-112.7l3.5-3.5c3.4-3.3,3.7-8.7.6-12.4-1.4-1.7-2.9-3.5-4.4-5.4,7.3-10.3,12.5-21.8,15.5-34,3.3-14.3,1.5-27.6-3.1-41.4-2.9-8-6.2-15.9-9.9-23.6-1.5-3.3-2.9-6.6-4.2-9.9,6-18.2,6.2-35-1.2-53.7-.4-.8-.8-1.6-1.4-2.3,3.4-2,5.5-5.7,5.6-9.7,0-4.8-3.1-9-7.5-10.6,11.4-4.6,9.9-25.3-4.8-61.9-14.7,36.7-16.2,57.2-4.8,61.9-5.8,2-8.9,8.3-6.9,14.2.8,2.5,2.5,4.6,4.8,5.9-.6.8-1.1,1.6-1.5,2.5-7.3,18.8-7.2,35.4-1.2,53.6-4.1,10.6-9.9,21.5-13.9,33.4-4.6,13.7-6.2,27.1-3.1,41.4,2.9,12.3,8.1,23.8,15.5,34-1.4,1.9-2.9,3.7-4.4,5.4-3.2,3.6-3,9.1.6,12.4l3.5,3.5c-24.4,33.8-26.1,76.9-1.7,112.7-10.8,7.4-13.5,22-6.2,32.8,7.4,10.8,22,13.5,32.8,6.2,6.4-4.4,10.3-11.7,10.3-19.4s-3.7-14.9-10.1-19.3h0l-.3-.1Zm-13-314c3.2,0,5.8,2.6,5.8,5.8s-2.6,5.8-5.8,5.8-5.8-2.6-5.8-5.8,2.5-5.7,5.6-5.8c0,0,.2,0,.2,0Zm-6.8,110.6c1.9-5.6,4.2-11,6.6-16.2,2.3,5.4,4.6,10.8,6.6,16.2,3.5,10.6,5,20.7,2.5,31.7-1.9,7.8-5,15.2-9.3,22-4.3-6.8-7.4-14.2-9.1-22-2.1-10.6-1.2-21.6,2.7-31.7h0Zm6.4,105.2c17,26.5,17.8,58.4,0,86-17.8-27.6-17-59.5,0-86Zm0,132.4c-8,0-14.5-6.5-14.5-14.5s6.5-14.5,14.5-14.5,14.5,6.5,14.5,14.5h0c0,8-6.5,14.4-14.5,14.5Z"/></svg>