<?xml version="1.0" encoding="UTF-8"?><svg id="Layer_1" xmlns="http://www.w3.org/2000/svg" width="62.15" height="520.9" viewBox="0 0 62.15 520.9"><defs><style>.premium-hand-svg__min{fill:#231f20;fill-rule:evenodd;}</style></defs><path class="premium-hand-svg__min" d="m41.79,325.4c1.7-2.3,3.5-4.8,5.4-7.2,2.3-3.1,2.5-7.4.4-10.6-2.1-3.1-4.2-6.4-6.2-9.7,10.1-18.6,17-38.7,18-59.9,1-21.3-4.4-40-11.2-60.1-2.9-8.5-5.6-16.4-7.7-24.2,1.3-4.8,2.4-9.6,3.1-14.5,2.9-17.7,1.8-35.8-3.3-53,2.4-2.2,3.7-5.4,3.7-8.7,0-4.8-2.8-9.2-7.2-11.2,11-5.4,9.3-27.4-5.2-66.3-14.7,38.9-16.4,60.9-5.4,66.3-6.2,2.9-8.9,10.4-6,16.6.5,1,1.1,2,1.9,2.9-5.2,17.3-6.4,35.5-3.5,53.4.8,4.8,1.9,9.7,3.1,14.5-2.1,7.7-4.8,15.7-7.7,24.2-6.8,20.1-12.2,38.7-11.2,60.1,1,21.5,8.1,41.4,18,59.9-1.9,3.3-4.1,6.6-6.2,9.7-2.3,3.2-2.1,7.6.4,10.6,1.9,2.3,3.7,4.6,5.4,7.2-26.9,46.9-27.2,104.4-.8,151.6-7,4.4-11.3,12-11.4,20.3,0,13,10.6,23.6,23.6,23.6s23.6-10.6,23.6-23.6c0-8.7-4.8-16.7-12.6-20.8,7-12.5,12.2-26,15.5-40,8.6-37.7,2.7-77.3-16.4-111h0l-.1-.1Zm-10.4-253.6c3.2,0,5.8,2.6,5.8,5.8s-2.6,5.8-5.8,5.8-5.8-2.6-5.8-5.8c-.1-3.1,2.3-5.7,5.4-5.8h.4Zm-10.8,165.9c-.8-18.9,4.2-35.8,10.2-53.6.1-.1.2-.3.2-.4.1.1.2.3.2.4,6,17.8,11,34.6,10.2,53.6-.9,14.2-4.5,28.1-10.4,41-5.9-12.9-9.5-26.8-10.4-41h0Zm11.4,270.1c-5.2,0-9.5-4.2-9.5-9.5s4.2-9.5,9.5-9.5,9.5,4.2,9.5,9.5h0c0,5.2-4.2,9.5-9.5,9.5Zm8.7-75.2c-2.2,9.6-5.5,18.9-9.7,27.8-4.1-8.9-7.3-18.3-9.7-27.8-6.8-29.8-3.4-61.1,9.7-88.7,13.1,27.7,16.5,58.9,9.7,88.7h0Z"/></svg>