<?xml version="1.0" encoding="UTF-8"?><svg id="Layer_1" xmlns="http://www.w3.org/2000/svg" width="55.6" height="557.96" viewBox="0 0 55.6 557.96"><defs><style>.cls-1{fill:#231f20;fill-rule:evenodd;}</style></defs><path class="cls-1" d="m49.2,503.16h0c4.2-5.1,6.4-11.4,6.4-18,.1-6.6-2.2-12.9-6.4-18L37.9,3.06c-6.2-4-14.1-4.1-20.3-.2L6.4,467.36c-4.2,5.1-6.4,11.4-6.4,18s2.3,12.9,6.4,17.9v45.3c0,5.2,4.1,9.4,9.2,9.4h24.2c5.2-.1,9.4-4.2,9.4-9.4v-45.5.1Zm-21.5-26c4.1,0,7.5,3.4,7.5,7.5s-3.3,7.5-7.5,7.5c-4.1-.1-7.5-3.4-7.5-7.5s3.3-7.5,7.5-7.5h0Z"/></svg>