<?xml version="1.0" encoding="UTF-8"?><svg id="Layer_1" xmlns="http://www.w3.org/2000/svg" width="45.24" height="413.89" viewBox="0 0 45.24 413.89"><defs><style>.cls-1{fill:#231f20;}</style></defs><path class="cls-1" d="m23.92,1.76c.1,5.9,12.7,324.6,12.7,324.6l-6.4,43.6c11.8,4.2,17.9,17.2,13.7,28.9-4.2,11.8-17.2,17.9-28.9,13.7s-17.9-17.2-13.7-28.9c2.3-6.4,7.3-11.4,13.7-13.7l-6.4-43.7L21.42,1.76c0-2.3,2.5-2.4,2.5,0h0Zm.6,389.6h0c0-.9-.7-1.6-1.6-1.6s-1.6.7-1.6,1.6.7,1.6,1.6,1.6,1.6-.7,1.6-1.6h0Z"/></svg>