<?xml version="1.0" encoding="UTF-8"?><svg id="Layer_1" xmlns="http://www.w3.org/2000/svg" width="55.6" height="557.96" viewBox="0 0 55.6 557.96"><defs><style>.cls-1{fill:#231f20;fill-rule:evenodd;}</style></defs><path class="cls-1" d="m44.2,488.46l-8.7-356.8c-4.7-3-10.7-3.1-15.5-.2l-8.7,356.9c-3.2,3.9-5,8.8-5.1,13.8,0,5.1,1.8,10,5.1,13.8v34.8c0,4,3.2,7.2,7.2,7.2h18.6c4,0,7.2-3.2,7.2-7.2h0v-34.9c3.2-3.9,5-8.8,5.1-13.8,0-5.1-1.8-10-5.1-13.8l-.1.2Zm-16.6,25.9c-6.4,0-11.5-5.2-11.5-11.5s5.2-11.5,11.5-11.5,11.5,5.2,11.5,11.5h0c0,6.3-5.2,11.5-11.5,11.5Z"/></svg>