<?xml version="1.0" encoding="UTF-8"?><svg id="Layer_1" xmlns="http://www.w3.org/2000/svg" width="117.48" height="347.91" viewBox="0 0 117.48 347.91"><defs><style>.cls-1{fill:#231f20;}</style></defs><path class="cls-1" d="m58.91,0C60.21,0,64.11,6.4,64.11,8.3v32.5c0,10.8,5.9,30.4,10.4,39.3,8.1,15.6,11.3,25.9,8.8,34.9-.4,1.4,0,1.6,1.3,1.7,13.6,1.4,24.4,11.9,26,25.5,2.7-.9,5.7.5,6.6,3.2s-.5,5.7-3.2,6.6c-1.2.4-2.5.4-3.7-.1-1.8,8.7-7.3,16.1-15.2,20.1,1.1,4.1-1,8.4-5,10-3.5,1.4-7.6.3-9.9-2.7-.9-1.2-2.7-1.3-4.5.6-17.6,17.7-16.4,50,6.2,64.1,3,1.9,1.3,4.1-.4,4.1h-4.7c-1.9,0-2,1.5-2,3.5,0,5-2.3,9.8-6.2,13-2.4,1.9-1,4.2.6,4.2h7.2c.6,0,1.1.5,1.1,1.1h0v5.2c0,.6-.5,1.1-1,1.1h-6.5c-2.1.6-3.3,2.8-2.7,4.9.3,1.2,1.2,2.1,2.3,2.6,13.4,4.8,22.4,17.4,22.5,31.7-.5,18.5-15.9,33-34.4,32.5-17.7-.5-32-14.8-32.5-32.5,0-14.3,9.1-26.9,22.6-31.7,2-.8,3-3.1,2.2-5.1-.4-1.1-1.4-2-2.5-2.3h-6.5c-.6,0-1.1-.5-1.1-1.1h0v-5.1c0-.6.5-1.1,1.1-1.1h7.2c1.6,0,3-2.3.6-4.2-4-3.2-6.2-8-6.2-13.1,0-2,0-3.5-2-3.5h-4.7c-1.7,0-3.4-2.3-.4-4.1,22.6-14.1,23.7-46.5,6.2-64.1-1.9-1.9-3.6-1.9-4.5-.6-2.8,3.7-8.1,4.4-11.8,1.5-2.7-2.1-3.9-5.6-3-8.9-7.8-4.1-13.4-11.5-15.2-20.2-2.6,1.1-5.7-.1-6.8-2.7-1.1-2.6.1-5.7,2.7-6.8,1.2-.5,2.5-.5,3.7-.1,1.7-13.5,12.5-24.1,26-25.5,1.3,0,1.7-.2,1.3-1.7-2.4-9.1.8-19.3,8.8-34.9,4.5-8.8,10.5-28.4,10.5-39.3V8.3c0-1.9,3.9-8.3,5.2-8.3h.3Zm10,248.7h0c0-5.1-8.1-17.7-9.3-17.7-2.1,0-9.3,12.6-9.3,17.7s4.2,9.3,9.3,9.3,9.3-4.2,9.3-9.3h0Zm-32.7-90.7h0c3.5,0,6.4,2.7,6.4,6.2h0c10.2-3.4,15.6-14.5,12.1-24.6-3.5-10.2-14.6-15.6-24.7-12.1s-15.6,14.6-12.1,24.7c2,5.7,6.4,10.1,12.1,12.1,0-3.5,2.8-6.3,6.3-6.3h-.1Zm51.7,6.3h0c10.2-3.5,15.6-14.5,12.1-24.7s-14.5-15.6-24.7-12.1-15.6,14.5-12.1,24.7c2,5.7,6.4,10.2,12.1,12.1-.2-3.5,2.4-6.5,5.9-6.7s6.5,2.4,6.7,5.9v.8h0Zm-29.3-.3h0c-2.9,3.7-6.1,7.2-9.6,10.4-.6.5-.9,1,0,2.1,3.7,4.3,7,9,9.8,13.9.6,1.2,1,1.2,1.7,0,2.8-4.9,6-9.6,9.7-13.9,1-1.2.7-1.6,0-2.1-3.5-3.2-6.7-6.7-9.6-10.4-.6-.9-1.2-.9-2,0h0Zm-2.5-61.4h0c-1.7,1.9-4.4,2.5-6.8,1.7-2.2-1-3.8,0-4,1.3-.9,6.3,4.1,10.4,6.9,12.6,4.1,3.3,5.4,7.5,6.7,7.5s2.5-4.2,6.7-7.5c2.7-2.1,7.8-6.3,6.9-12.6-.2-1.3-1.8-2.3-4-1.3-2.4.8-5,.2-6.7-1.7-.8-.5-1.7-.8-2.7-.9-1,0-2,.4-2.8.9h-.2Zm-4-22.1h0c-2.2,2.4-3.6,5.4-4,8.6,0,.9,2.4,2.1,4,1.4,1.5-.8,3.3-.8,4.7,0,1,.8,1.5,1.2,1.9,1.2s.9-.3,1.9-1.2c1.4-.9,3.3-.9,4.7,0,1.6.8,3.9-.5,4-1.4.3-2.3-1.8-6-4-8.6-4.5-5.4-3.2-8.1-6.7-8.1s-2.2,2.5-6.7,8.1h.2Zm18.2,234.8h0c0-6.3-5.1-11.4-11.4-11.4s-11.4,5.1-11.4,11.4,5.1,11.4,11.4,11.4,11.4-5.1,11.4-11.4Z"/></svg>