<svg viewBox="35 45 80 80" xmlns="http://www.w3.org/2000/svg" width="100%" height="100%"><path fill="#fff" d="M99.6,77.8H78.2v-5.6h21.4c0.6,0,1.1,0.5,1.1,1.1v3.4C100.7,77.3,100.2,77.8,99.6,77.8z"></path><path fill="#fff" d="M99.6,99.2H78.2v-5.6h21.4c0.6,0,1.1,0.5,1.1,1.1v3.4C100.7,98.7,100.2,99.2,99.6,99.2z"></path><path fill="#fff" d="M103,88.5H78.2v-5.6H103c0.6,0,1.1,0.5,1.1,1.1v3.4C104.1,88,103.6,88.5,103,88.5z"></path><path fill="#fff" d="M59.1,83.4v5.1h7.3c-0.6,3.1-3.3,5.3-7.3,5.3c-4.4,0-8-3.7-8-8.2c0-4.4,3.6-8.2,8-8.2c2,0,3.8,0.7,5.2,2v0 l3.9-3.9c-2.3-2.2-5.4-3.5-9-3.5c-7.5,0-13.5,6-13.5,13.5c0,7.5,6,13.5,13.5,13.5C66.9,99.2,72,93.7,72,86c0-0.9-0.1-1.7-0.2-2.6 H59.1z"></path></svg>