<svg version="1.1" width="100%" height="100%" xmlns="http://www.w3.org/2000/svg" xmlns:xlink="http://www.w3.org/1999/xlink" viewBox="-213 20 900 500" style="enable-background:new 0 0 500 500;" xml:space="preserve"><g><path fill="#fff" d="M200,300v-50.3h100.1c27.5,0,49.9-22.3,49.9-49.9v0c0-27.5-22.3-49.9-49.9-49.9H0v0C0,67.2,67.2,0,150,0l150,0 c110.5,0,200,89.5,200,200v0c0,110.5-89.5,200-200,200h0C244.8,400,200,355.2,200,300z M150,350V200h0C67.2,200,0,267.2,0,350v150 h0C82.8,500,150,432.8,150,350z"/></g></svg>