<svg style="%inner_style%" focusable="false" aria-hidden="true" xmlns="http://www.w3.org/2000/svg" xmlns:xlink="http://www.w3.org/1999/xlink" version="1.1" width="100%" height="100%" viewBox="-62 0 270.44519 165.89"><g><path fill="#fff" d="M93.0253,42.4766H0V145.89H25.8921V112.246H75.5056L98.1417,145.89H127.135l-24.962-33.799q11.628-1.8615,16.744-8.838c3.411-4.6512,5.117-12.0932,5.117-22.0159V73.485a49.20515,49.20515,0,0,0-1.706-14.1088,23.56213,23.56213,0,0,0-5.581-9.4576,25.256,25.256,0,0,0-9.613-5.7366A50.78154,50.78154,0,0,0,93.0253,42.4766ZM88.8392,89.4544H25.8921V65.2678H88.8392c3.566,0,6.0466.6201,7.287,1.7054s2.0155,3.1009,2.0155,6.0467v8.6823c0,3.1009-.7752,5.1164-2.0155,6.2017S92.4052,89.4544,88.8392,89.4544Z"/><circle fill="#fff" cx="133.328" cy="28.1172" r="18.11719"/></g></svg>