<svg xmlns="http://www.w3.org/2000/svg" width="194" height="56" viewBox="0 0 194 56" fill="none"><path d="M27.709 0.149414C24.0899 0.149414 20.5061 0.862327 17.1625 2.24721C13.8189 3.63225 10.7809 5.66217 8.22171 8.22122C5.66266 10.7804 3.63274 13.8184 2.2477 17.162C0.862816 20.5056 0.149902 24.0894 0.149902 27.7085C0.149902 31.3275 0.862816 34.9113 2.2477 38.2549C3.63274 41.5985 5.66266 44.6365 8.22171 47.1957C10.7809 49.7548 13.8189 51.7847 17.1625 53.1697C20.5061 54.5546 24.0899 55.2675 27.709 55.2675V41.488C25.8993 41.488 24.1075 41.1316 22.4357 40.439C20.7639 39.7466 19.2449 38.7316 17.9653 37.4521C16.6858 36.1726 15.6708 34.6535 14.9784 32.9817C14.2858 31.3099 13.9294 29.5181 13.9294 27.7085C13.9294 25.8989 14.2858 24.1071 14.9784 22.4352C15.6708 20.7634 16.6858 19.2444 17.9653 17.9648C19.2449 16.6853 20.7639 15.6704 22.4357 14.9779C24.1075 14.2853 25.8993 13.9289 27.709 13.9289V0.149414Z" fill="#6D6D6D"></path><path d="M27.7088 36.8951C32.7823 36.8951 36.8951 32.7823 36.8951 27.7088C36.8951 22.6352 32.7823 18.5225 27.7088 18.5225C22.6352 18.5225 18.5225 22.6352 18.5225 27.7088C18.5225 32.7823 22.6352 36.8951 27.7088 36.8951Z" fill="#6D6D6D"></path><path d="M0.149902 27.7085C0.149902 31.3276 0.862816 34.9113 2.2477 38.255C3.63274 41.5986 5.66266 44.6365 8.22171 47.1957C10.7809 49.7548 13.8189 51.7847 17.1625 53.1698C20.5061 54.5546 24.0899 55.2675 27.709 55.2675C31.328 55.2675 34.9118 54.5546 38.2554 53.1698C41.599 51.7847 44.637 49.7548 47.1962 47.1957C49.7553 44.6365 51.7852 41.5986 53.1702 38.255C54.5551 34.9113 55.268 31.3276 55.268 27.7085H41.4885C41.4885 29.5181 41.1321 31.3099 40.4395 32.9817C39.7471 34.6535 38.7321 36.1726 37.4526 37.4521C36.1731 38.7316 34.654 39.7466 32.9822 40.439C31.3104 41.1316 29.5186 41.488 27.709 41.488C25.8994 41.488 24.1075 41.1316 22.4357 40.439C20.7639 39.7466 19.2449 38.7316 17.9653 37.4521C16.6858 36.1726 15.6708 34.6535 14.9784 32.9817C14.2858 31.3099 13.9294 29.5181 13.9294 27.7085H0.149902Z" fill="#8D8D8D"></path><path d="M36.8952 27.7084C36.8952 25.2721 35.9273 22.9355 34.2047 21.2127C32.4818 19.4898 30.1453 18.522 27.7089 18.522C25.2725 18.522 22.936 19.4898 21.2132 21.2127C19.4903 22.9355 18.5225 25.2721 18.5225 27.7084H27.7089H36.8952Z" fill="#8D8D8D"></path><path d="M69.6611 17.354H66.2383V36.3697H69.6611V17.354Z" fill="#6D6D6D"></path><path d="M71.896 29.633C71.896 34.0337 74.9385 36.7503 78.959 36.7503C82.9795 36.7503 86.022 34.0337 86.022 29.633C86.022 25.2322 82.9795 22.5156 78.959 22.5156C74.9385 22.5156 71.896 25.2322 71.896 29.633ZM75.3188 29.633C75.3188 27.0251 76.8401 25.5038 78.959 25.5038C81.0779 25.5038 82.5992 27.0251 82.5992 29.633C82.5992 32.2408 81.0779 33.7621 78.959 33.7621C76.8401 33.7621 75.3188 32.2408 75.3188 29.633Z" fill="#6D6D6D"></path><path d="M98.2537 22.8959V24.7159H97.982C97.1671 23.5479 95.8632 22.5156 93.5269 22.5156C90.3214 22.5156 87.4419 25.2322 87.4419 29.4156C87.4419 33.5991 90.3214 36.3156 93.5269 36.3156C95.8632 36.3156 97.1671 35.2561 97.9277 34.1967H98.1994V35.5007C98.1994 38.1085 96.6781 39.3038 94.4506 39.3038C92.223 39.3038 91.0821 38.1085 90.6202 36.56L87.5506 37.8912C88.2569 39.9285 90.3214 42.1833 94.5049 42.1833C98.797 42.1833 101.622 39.9285 101.622 35.5821V22.8959H98.2537ZM94.5592 33.3818C92.4403 33.3818 90.8647 31.8605 90.8647 29.4156C90.8647 26.9707 92.4403 25.4495 94.5592 25.4495C96.6781 25.4495 98.2537 26.9707 98.2537 29.4156C98.2537 31.8605 96.6781 33.3818 94.5592 33.3818Z" fill="#6D6D6D"></path><path d="M103.836 29.633C103.836 34.0337 106.879 36.7503 110.899 36.7503C114.92 36.7503 117.962 34.0337 117.962 29.633C117.962 25.2322 114.92 22.5156 110.899 22.5156C106.879 22.5156 103.836 25.2322 103.836 29.633ZM107.259 29.633C107.259 27.0251 108.781 25.5038 110.899 25.5038C113.018 25.5038 114.54 27.0251 114.54 29.633C114.54 32.2408 113.018 33.7621 110.899 33.7621C108.781 33.7621 107.259 32.2408 107.259 29.633Z" fill="#6D6D6D"></path><path d="M120.649 18.9842C120.649 20.3697 121.709 21.3204 123.068 21.3204C124.425 21.3204 125.485 20.3697 125.485 18.9842C125.485 17.5988 124.425 16.6479 123.068 16.6479C121.709 16.6479 120.649 17.5988 120.649 18.9842ZM124.778 22.896H121.356V36.37H124.778V22.896Z" fill="#8D8D8D"></path><path d="M127.829 41.803H131.252V34.6314H131.523C132.284 35.718 133.588 36.7503 135.925 36.7503C139.129 36.7503 142.01 34.0337 142.01 29.6329C142.01 25.2322 139.129 22.5156 135.925 22.5156C133.588 22.5156 132.284 23.5479 131.47 24.7161H131.197V22.8959H127.829V41.803ZM134.892 33.8164C132.773 33.8164 131.197 32.2952 131.197 29.6329C131.197 26.9707 132.773 25.4495 134.892 25.4495C137.011 25.4495 138.586 26.9707 138.586 29.6329C138.586 32.2952 137.011 33.8164 134.892 33.8164Z" fill="#8D8D8D"></path><path d="M144.006 26.672C144.006 29.3342 146.233 30.3122 149.058 30.8555L149.765 30.9912C151.449 31.3172 152.209 31.7248 152.209 32.5941C152.209 33.4633 151.449 34.1424 149.874 34.1424C148.298 34.1424 147.022 33.4904 146.668 31.5345L143.517 32.3495C143.98 35.1747 146.342 36.7503 149.874 36.7503C153.296 36.7503 155.524 35.1476 155.524 32.3224C155.524 29.497 153.243 28.7366 150.2 28.1389L149.493 28.003C148.08 27.7314 147.32 27.3511 147.32 26.4547C147.32 25.6397 148.027 25.1235 149.331 25.1235C150.635 25.1235 151.558 25.6668 151.884 27.1337L154.981 26.183C154.329 24.0098 152.347 22.5156 149.331 22.5156C146.124 22.5156 144.006 24.0098 144.006 26.672Z" fill="#8D8D8D"></path><path d="M170.899 36.37V22.896H167.477V29.8503C167.477 32.3495 166.255 33.8165 164.162 33.8165C162.315 33.8165 161.283 32.8114 161.283 30.7739V22.896H157.86V30.9369C157.86 34.2784 159.953 36.5873 163.104 36.5873C165.575 36.5873 166.717 35.5007 167.26 34.3598H167.531V36.37H170.899Z" fill="#8D8D8D"></path><path d="M173.936 22.896V36.37H177.359V28.3291C177.359 26.4819 178.228 25.4496 179.803 25.4496C181.162 25.4496 181.976 26.2102 181.976 27.6771V36.37H185.4V28.3291C185.4 26.4819 186.269 25.4496 187.844 25.4496C189.203 25.4496 190.017 26.2102 190.017 27.6771V36.37H193.441V27.5141C193.441 24.2543 191.43 22.6787 188.931 22.6787C186.731 22.6787 185.726 23.6567 185.074 24.7976H184.802C184.176 23.5209 183.063 22.6787 181.107 22.6787C179.151 22.6787 178.091 23.548 177.576 24.5803H177.304V22.896H173.936Z" fill="#8D8D8D"></path></svg>