<svg xmlns="http://www.w3.org/2000/svg" width="200" height="51" viewBox="0 0 200 51" fill="none"><path d="M66.6069 34.4544H71.0975V13.3223H66.6069V34.4544Z" fill="#8D8D8D"></path><path d="M80.3095 34.924C85.0055 34.924 88.0873 31.9009 88.0873 26.5592C88.0873 21.3936 85.0936 18.165 80.3095 18.165C75.6135 18.165 72.561 21.1881 72.561 26.5592C72.561 31.7542 75.5254 34.924 80.3095 34.924ZM80.3095 31.2846C78.2843 31.2846 77.169 29.6116 77.169 26.5592C77.169 23.4774 78.255 21.8045 80.3095 21.8045C82.364 21.8045 83.4793 23.5068 83.4793 26.5592C83.4793 29.641 82.3933 31.2846 80.3095 31.2846Z" fill="#8D8D8D"></path><path d="M95.3931 34.4837C97.0954 34.4837 98.5043 33.7793 99.5022 32.3999V35.0414C99.5022 37.2427 98.4162 37.9764 96.8019 37.9764C95.2464 37.9764 94.043 37.2133 93.8669 35.8045H89.3763C89.934 39.6494 92.8397 41.4104 96.8606 41.4104C100.999 41.4104 103.993 39.2091 103.993 34.9827V18.664H99.5022V20.1315C98.5336 18.8401 97.1541 18.165 95.3931 18.165C91.4602 18.165 88.9067 21.1001 88.9067 26.3537C88.9067 31.3726 91.4015 34.4837 95.3931 34.4837ZM96.4791 30.8443C94.542 30.8443 93.5147 29.2301 93.5147 26.3537C93.5147 23.3894 94.542 21.8045 96.4791 21.8045C98.4455 21.8045 99.5022 23.4187 99.5022 26.3244C99.5022 29.2594 98.4749 30.8443 96.4791 30.8443Z" fill="#8D8D8D"></path><path d="M113.23 34.924C117.926 34.924 121.008 31.9009 121.008 26.5592C121.008 21.3936 118.014 18.165 113.23 18.165C108.534 18.165 105.481 21.1881 105.481 26.5592C105.481 31.7542 108.446 34.924 113.23 34.924ZM113.23 31.2846C111.205 31.2846 110.089 29.6116 110.089 26.5592C110.089 23.4774 111.175 21.8045 113.23 21.8045C115.284 21.8045 116.4 23.5068 116.4 26.5592C116.4 29.641 115.314 31.2846 113.23 31.2846Z" fill="#8D8D8D"></path><path d="M122.502 17.0791H126.993V13.3223H122.502V17.0791ZM122.502 34.4544H126.993V18.664H122.502V34.4544Z" fill="#8D8D8D"></path><path d="M133.621 40.9408V32.8695C134.56 34.2196 135.91 34.924 137.583 34.924C141.604 34.924 144.216 31.9009 144.216 26.5298C144.216 21.3642 141.663 18.165 137.583 18.165C135.94 18.165 134.59 18.9281 133.621 20.3076V18.664H129.13V40.9408H133.621ZM136.644 21.8045C138.552 21.8045 139.608 23.4774 139.608 26.5298C139.608 29.6116 138.581 31.2846 136.644 31.2846C134.678 31.2846 133.621 29.5823 133.621 26.5298C133.621 23.4774 134.648 21.8045 136.644 21.8045Z" fill="#8D8D8D"></path><path d="M149.61 23.0372C149.61 22.186 150.373 21.599 151.547 21.599C153.132 21.599 154.071 22.2741 154.335 23.8883H158.796C158.356 19.8967 155.48 18.165 151.693 18.165C147.467 18.165 145.324 20.6305 145.324 23.272C145.324 29.6116 154.893 26.882 154.893 29.9345C154.893 30.903 154.1 31.5194 152.515 31.5194C150.842 31.5194 149.639 30.7269 149.433 29.2594H144.943C145.53 33.163 148.406 34.924 152.398 34.924C156.507 34.924 159.383 32.7814 159.383 29.6703C159.383 23.4187 149.61 26.1483 149.61 23.0372Z" fill="#8D8D8D"></path><path d="M170.447 27.7333C170.447 29.7584 169.331 31.2846 167.6 31.2846C166.015 31.2846 165.252 30.2867 165.252 28.2616V18.6641H160.761V29.1714C160.761 33.1044 162.963 34.9241 165.956 34.9241C167.864 34.9241 169.42 34.1023 170.447 32.3413V34.4545H174.937V18.6641H170.447V27.7333Z" fill="#8D8D8D"></path><path d="M177.107 34.4544H181.598V25.3852C181.598 23.36 182.625 21.8045 184.18 21.8045C185.618 21.8045 186.323 22.8317 186.323 24.8275V34.4544H190.784V25.3852C190.784 23.36 191.841 21.8045 193.396 21.8045C194.834 21.8045 195.51 22.8317 195.51 24.8275V34.4544H200V23.9177C200 20.0141 197.828 18.165 194.893 18.165C192.927 18.165 191.254 18.9868 190.168 20.7772C189.375 19.0162 187.79 18.165 185.912 18.165C184.092 18.165 182.595 18.9575 181.598 20.6598V18.664H177.107V34.4544Z" fill="#8D8D8D"></path><path d="M49.5768 40.9022C54.4413 36.5584 57.4243 30.6962 57.4243 24.2458C57.4243 10.8552 44.5694 0 28.7121 0C12.8549 0 0 10.8552 0 24.2458C0 37.6364 12.8549 48.4916 28.7121 48.4916C33.2108 48.4916 37.4678 47.618 41.2582 46.0605C45.7108 48.8089 51.1659 50.7844 57.1906 50.3677C54.0078 49.5587 51.2701 46.2813 49.5768 40.9022Z" fill="#8D8D8D"></path><path d="M49.7679 24.2457C49.7679 34.1125 40.341 42.111 28.7123 42.111C17.0836 42.111 7.65674 34.1125 7.65674 24.2457C7.65674 14.3789 17.0836 6.38037 28.7123 6.38037C40.341 6.38037 49.7679 14.3789 49.7679 24.2457Z" fill="white"></path><path d="M42.111 24.2456C42.111 30.5886 36.1121 35.7305 28.712 35.7305C21.3119 35.7305 15.313 30.5886 15.313 24.2456C15.313 17.9026 21.3119 12.7607 28.712 12.7607C36.1121 12.7607 42.111 17.9026 42.111 24.2456Z" fill="#8D8D8D"></path></svg>