<svg xmlns="http://www.w3.org/2000/svg" width="194" height="52" viewBox="0 0 194 52" fill="none"><path fill-rule="evenodd" clip-rule="evenodd" d="M30.2561 1.65527C28.3889 -0.211147 25.3622 -0.210534 23.4959 1.65665L7.91917 17.2397L7.9059 17.2358L7.85667 17.2411C7.87695 17.2508 7.89685 17.2605 7.91635 17.2702C5.18387 17.5565 4.02452 18.3776 4.0114 19.4321C4.01602 19.8243 4.17696 20.248 4.47257 20.6877L4.45836 20.702C6.94246 24.4486 19.2486 29.391 27.9549 26.0423C21.4299 29.3048 6.06317 29.9515 1.54974 23.617C0.569561 24.6773 0.159461 26.0708 0.313899 27.41C1.50622 33.9817 14.8365 35.7746 28.1669 26.253L31.0515 29.1376C27.462 32.8253 22.1599 54.246 30.0382 50.9755C30.2251 50.8486 30.3837 50.7351 30.5995 50.5718L30.9506 50.2403C30.9304 50.2453 30.9102 50.2501 30.8902 50.2548L51.9902 30.3352C53.9494 28.4856 53.9937 25.3832 52.0881 23.4783L30.2561 1.65527ZM27.9584 8.14688L28.6795 5.26227L29.4006 8.14688L31.5641 8.86804L29.4006 9.58922L28.6795 12.4738L27.9584 9.58922L25.7949 8.86804L27.9584 8.14688ZM19.0322 17.5636L19.513 15.6405L19.9937 17.5636L21.4361 18.0443L19.9937 18.5251L19.513 20.4482L19.0322 18.5251L17.59 18.0443L19.0322 17.5636ZM35.7767 33.7847L35.296 35.7077L33.8537 36.1886L35.296 36.6693L35.7767 38.5923L36.2575 36.6693L37.6999 36.1886L36.2575 35.7077L35.7767 33.7847Z" fill="#8D8D8D"></path><path d="M65.6226 12.3442H61.145V32.5482H73.5405V28.5894H65.6226V12.3442Z" fill="#8D8D8D"></path><path d="M73.9683 25.6952C73.9683 30.0091 76.8624 32.8758 81.2308 32.8758C85.572 32.8758 88.466 30.0091 88.466 25.6952C88.466 21.3813 85.572 18.4873 81.2308 18.4873C76.8624 18.4873 73.9683 21.3813 73.9683 25.6952ZM78.2003 25.6679C78.2003 23.6202 79.4015 22.2551 81.2308 22.2551C83.0328 22.2551 84.2341 23.6202 84.2341 25.6679C84.2341 27.7429 83.0328 29.1081 81.2308 29.1081C79.4015 29.1081 78.2003 27.7429 78.2003 25.6679Z" fill="#8D8D8D"></path><path d="M89.1424 25.4772C89.1424 29.5999 91.8181 32.3847 95.6131 32.3847C97.4425 32.3847 99.026 31.7295 99.8178 30.6647V32.5486C99.8178 34.4325 98.6438 35.6885 96.5688 35.6885C94.7121 35.6885 93.429 34.8147 93.347 33.2585H89.0879C89.47 36.999 92.3641 39.5109 96.323 39.5109C100.992 39.5109 103.941 36.4802 103.941 31.6749V18.8972H100.145L99.927 20.2896C99.1625 19.1702 97.5516 18.4331 95.6951 18.4331C91.8728 18.4331 89.1424 21.2999 89.1424 25.4772ZM93.4016 25.368C93.4016 23.4022 94.7123 22.0916 96.3776 22.0916C98.3161 22.0916 99.7359 23.3749 99.7359 25.368C99.7359 27.3611 98.3435 28.7262 96.405 28.7262C94.7395 28.7262 93.4016 27.3611 93.4016 25.368Z" fill="#8D8D8D"></path><path d="M105.166 25.6952C105.166 30.0091 108.06 32.8758 112.429 32.8758C116.77 32.8758 119.664 30.0091 119.664 25.6952C119.664 21.3813 116.77 18.4873 112.429 18.4873C108.06 18.4873 105.166 21.3813 105.166 25.6952ZM109.398 25.6679C109.398 23.6202 110.599 22.2551 112.429 22.2551C114.231 22.2551 115.432 23.6202 115.432 25.6679C115.432 27.7429 114.231 29.1081 112.429 29.1081C110.599 29.1081 109.398 27.7429 109.398 25.6679Z" fill="#8D8D8D"></path><path d="M123.289 16.7673C124.599 16.7673 125.664 15.7025 125.664 14.3646C125.664 13.0268 124.599 11.9893 123.289 11.9893C121.951 11.9893 120.886 13.0268 120.886 14.3646C120.886 15.7025 121.951 16.7673 123.289 16.7673ZM121.159 32.5483H125.391V18.8969H121.159V32.5483Z" fill="#8D8D8D"></path><path d="M127.854 39.1008H132.004V31.1831C132.797 32.2206 134.598 32.9305 136.483 32.9305C140.55 32.9305 143.008 29.818 142.898 25.5041C142.789 21.1083 140.25 18.46 136.455 18.46C134.517 18.46 132.688 19.3063 131.923 20.5623L131.704 18.8968H127.854V39.1008ZM132.087 25.7225C132.087 23.6748 133.452 22.3097 135.418 22.3097C137.41 22.3097 138.667 23.7021 138.667 25.7225C138.667 27.743 137.41 29.1353 135.418 29.1353C133.452 29.1353 132.087 27.7702 132.087 25.7225Z" fill="#8D8D8D"></path><path d="M143.346 28.2343C143.455 30.992 145.64 32.9031 149.08 32.9031C152.384 32.9031 154.677 31.1557 154.677 28.3436C154.677 26.3232 153.475 24.9853 151.236 24.4393L148.806 23.8386C147.932 23.6202 147.387 23.4018 147.387 22.692C147.387 21.9821 147.96 21.5178 148.806 21.5178C149.762 21.5178 150.39 22.1458 150.362 23.0742H154.159C154.049 20.2347 151.892 18.46 148.889 18.46C145.857 18.46 143.592 20.262 143.592 22.9922C143.592 24.8216 144.602 26.3232 147.305 27.0331L149.707 27.661C150.417 27.8521 150.717 28.1797 150.717 28.644C150.717 29.3265 150.09 29.7633 149.025 29.7633C147.796 29.7633 147.141 29.19 147.141 28.2343H143.346Z" fill="#8D8D8D"></path><path d="M161.113 32.9032C162.779 32.9032 164.444 32.1388 165.29 31.0193L165.564 32.5483H169.523V18.897H165.318V25.9957C165.318 28.0433 164.716 29.1628 162.779 29.1628C161.276 29.1628 160.294 28.4802 160.294 25.9411V18.897H156.089V27.47C156.089 30.7191 157.891 32.9032 161.113 32.9032Z" fill="#8D8D8D"></path><path d="M176.19 32.5486V25.095C176.19 22.8015 177.419 22.1462 178.62 22.1462C179.958 22.1462 180.831 22.9654 180.831 24.6581V32.5486H184.981V25.095C184.981 22.7742 186.183 22.119 187.384 22.119C188.721 22.119 189.623 22.938 189.623 24.6581V32.5486H193.719V23.6206C193.719 20.5081 192.08 18.4331 188.558 18.4331C186.593 18.4331 184.981 19.3887 184.271 20.863C183.453 19.3887 182.033 18.4331 179.766 18.4331C178.265 18.4331 176.873 19.1156 176.054 20.2077L175.89 18.8972H171.958V32.5486H176.19Z" fill="#8D8D8D"></path><path fill-rule="evenodd" clip-rule="evenodd" d="M53.615 3.56396C49.1041 3.56396 44.8262 5.5676 41.9384 9.03298L31.6646 21.3616L37.5971 12.4627L27.7496 16.6831C26.499 17.2191 26.1852 18.8485 27.1472 19.8106L30.3162 22.9795L28.6982 24.9211L32.2579 28.4806L34.1994 26.8626L37.3684 30.0316C38.3304 30.9936 39.9599 30.6799 40.4957 29.4294L44.7161 19.5819L35.8174 25.5144L48.146 15.2405C51.6114 12.3527 53.615 8.07486 53.615 3.56396ZM43.8264 13.3529C44.8092 14.3357 46.4029 14.3357 47.3859 13.3529C48.3687 12.3699 48.3687 10.7762 47.3859 9.79338C46.4029 8.81038 44.8092 8.81038 43.8264 9.79338C42.8434 10.7762 42.8434 12.3699 43.8264 13.3529Z" fill="#8D8D8D"></path><path opacity="0.6" d="M1.43506 23.4512C3.79188 31.5259 18.1209 31.1049 27.9519 26.0435C21.3689 29.333 5.79633 29.9613 1.43506 23.4512Z" fill="white"></path><path opacity="0.6" d="M30.0379 50.9755C23.3994 53.7313 26.1194 38.9558 29.2874 32.0308C26.9782 38.186 25.0069 51.7549 30.9503 50.2404L30.5992 50.5719C30.3834 50.7351 30.2248 50.8486 30.0379 50.9755Z" fill="white"></path></svg>