<svg xmlns="http://www.w3.org/2000/svg" width="199" height="52" viewBox="0 0 199 52" fill="none"><path d="M66.5576 13.2695H61.9355V34.1254H74.7309V30.0388H66.5576V13.2695Z" fill="#8D8D8D"></path><path d="M75.1724 27.0514C75.1724 31.5044 78.1598 34.4636 82.6691 34.4636C87.1503 34.4636 90.1378 31.5044 90.1378 27.0514C90.1378 22.5983 87.1503 19.6108 82.6691 19.6108C78.1598 19.6108 75.1724 22.5983 75.1724 27.0514ZM79.5408 27.0231C79.5408 24.9094 80.7809 23.5003 82.6691 23.5003C84.5293 23.5003 85.7694 24.9094 85.7694 27.0231C85.7694 29.1652 84.5293 30.5743 82.6691 30.5743C80.7809 30.5743 79.5408 29.1652 79.5408 27.0231Z" fill="#8D8D8D"></path><path d="M90.8362 26.826C90.8362 31.0817 93.5982 33.9564 97.5157 33.9564C99.404 33.9564 101.039 33.28 101.856 32.1809V34.1255C101.856 36.0702 100.644 37.3666 98.5021 37.3666C96.5856 37.3666 95.2609 36.4648 95.1764 34.8583H90.7798C91.1744 38.7195 94.1619 41.3122 98.2484 41.3122C103.068 41.3122 106.112 38.184 106.112 33.2236V20.0338H102.194L101.969 21.4711C101.18 20.3156 99.5167 19.5547 97.6003 19.5547C93.6545 19.5547 90.8362 22.5139 90.8362 26.826ZM95.2328 26.7133C95.2328 24.684 96.5856 23.3312 98.3048 23.3312C100.306 23.3312 101.771 24.6558 101.771 26.7133C101.771 28.7707 100.334 30.1798 98.3329 30.1798C96.6138 30.1798 95.2328 28.7707 95.2328 26.7133Z" fill="#8D8D8D"></path><path d="M107.376 27.0514C107.376 31.5044 110.364 34.4636 114.873 34.4636C119.355 34.4636 122.342 31.5044 122.342 27.0514C122.342 22.5983 119.355 19.6108 114.873 19.6108C110.364 19.6108 107.376 22.5983 107.376 27.0514ZM111.745 27.0231C111.745 24.9094 112.985 23.5003 114.873 23.5003C116.733 23.5003 117.973 24.9094 117.973 27.0231C117.973 29.1652 116.733 30.5743 114.873 30.5743C112.985 30.5743 111.745 29.1652 111.745 27.0231Z" fill="#8D8D8D"></path><path d="M126.084 17.8354C127.437 17.8354 128.536 16.7362 128.536 15.3553C128.536 13.9743 127.437 12.9033 126.084 12.9033C124.703 12.9033 123.604 13.9743 123.604 15.3553C123.604 16.7362 124.703 17.8354 126.084 17.8354ZM123.886 34.1255H128.254V20.0338H123.886V34.1255Z" fill="#8D8D8D"></path><path d="M130.797 40.8892H135.081V32.7161C135.898 33.787 137.759 34.5198 139.703 34.5198C143.902 34.5198 146.439 31.3069 146.326 26.8539C146.213 22.3163 143.592 19.5825 139.675 19.5825C137.673 19.5825 135.786 20.4562 134.996 21.7527L134.77 20.0335H130.797V40.8892ZM135.165 27.0793C135.165 24.9656 136.574 23.5565 138.604 23.5565C140.661 23.5565 141.957 24.9937 141.957 27.0793C141.957 29.165 140.661 30.6023 138.604 30.6023C136.574 30.6023 135.165 29.1931 135.165 27.0793Z" fill="#8D8D8D"></path><path d="M146.789 29.6722C146.901 32.5188 149.156 34.4916 152.707 34.4916C156.118 34.4916 158.485 32.6878 158.485 29.785C158.485 27.6994 157.245 26.3184 154.933 25.7546L152.426 25.1346C151.524 24.9092 150.96 24.6837 150.96 23.9509C150.96 23.2181 151.551 22.739 152.426 22.739C153.412 22.739 154.06 23.3873 154.032 24.3455H157.95C157.836 21.4144 155.611 19.5825 152.51 19.5825C149.382 19.5825 147.043 21.4426 147.043 24.261C147.043 26.1492 148.085 27.6994 150.875 28.4322L153.355 29.0803C154.088 29.2776 154.398 29.6158 154.398 30.0949C154.398 30.7996 153.75 31.2505 152.651 31.2505C151.382 31.2505 150.706 30.6586 150.706 29.6722H146.789Z" fill="#8D8D8D"></path><path d="M165.128 34.4918C166.848 34.4918 168.566 33.7026 169.44 32.5471L169.723 34.1254H173.809V20.0337H169.468V27.3614C169.468 29.4751 168.849 30.6306 166.848 30.6306C165.297 30.6306 164.283 29.9261 164.283 27.305V20.0337H159.942V28.8832C159.942 32.2372 161.803 34.4918 165.128 34.4918Z" fill="#8D8D8D"></path><path d="M180.692 34.1255V26.4315C180.692 24.064 181.96 23.3876 183.2 23.3876C184.581 23.3876 185.483 24.2331 185.483 25.9805V34.1255H189.767V26.4315C189.767 24.0358 191.007 23.3595 192.247 23.3595C193.627 23.3595 194.558 24.2049 194.558 25.9805V34.1255H198.786V24.9095C198.786 21.6966 197.094 19.5547 193.458 19.5547C191.43 19.5547 189.767 20.541 189.034 22.0629C188.189 20.541 186.723 19.5547 184.383 19.5547C182.834 19.5547 181.396 20.2592 180.551 21.3866L180.382 20.0338H176.323V34.1255H180.692Z" fill="#8D8D8D"></path><path d="M0 25.8065C0 13.6412 0 7.55853 3.77926 3.77926C7.55853 0 13.6412 0 25.8065 0C37.9717 0 44.0543 0 47.8337 3.77926C51.6129 7.55853 51.6129 13.6412 51.6129 25.8065C51.6129 37.9717 51.6129 44.0543 47.8337 47.8337C44.0543 51.6129 37.9717 51.6129 25.8065 51.6129C13.6412 51.6129 7.55853 51.6129 3.77926 47.8337C0 44.0543 0 37.9717 0 25.8065Z" fill="#8D8D8D"></path><path d="M30.9678 33.5483C31.6804 33.5483 32.2712 34.1317 32.1296 34.8301C31.8794 36.0637 31.2717 37.207 30.3684 38.1103C29.1586 39.3202 27.5176 40 25.8065 40C24.0954 40 22.4545 39.3202 21.2446 38.1103C20.3414 37.207 19.7336 36.0637 19.4835 34.8301C19.3419 34.1317 19.9326 33.5483 20.6452 33.5483H30.9678Z" fill="white"></path><path d="M33.6805 22.9376C32.9921 23.122 32.5706 23.8422 32.9196 24.4634C33.287 25.1174 33.7951 25.6881 34.4133 26.1311C35.3839 26.8265 36.5656 27.1641 37.7572 27.0859C38.9487 27.0078 40.0763 26.5191 40.9477 25.7028C41.8194 24.8865 42.3808 23.7933 42.5367 22.6094C42.6925 21.4255 42.4332 20.2242 41.8026 19.2102C41.172 18.1962 40.2093 17.4322 39.0786 17.0483C37.9479 16.6645 36.7191 16.6846 35.6016 17.1053C34.8898 17.3731 34.2514 17.7929 33.7272 18.3294C33.2293 18.8392 33.4501 19.644 34.0672 20.0002L34.7218 20.3782C35.7173 20.953 35.521 22.4445 34.4106 22.742L33.6805 22.9376Z" fill="white"></path><path d="M17.9328 22.9376C18.6212 23.122 19.0427 23.8422 18.6937 24.4634C18.3263 25.1174 17.8182 25.6881 17.2001 26.1311C16.2296 26.8265 15.0477 27.1641 13.8563 27.0859C12.6647 27.0078 11.5371 26.5191 10.6656 25.7028C9.79403 24.8865 9.23249 23.7933 9.07664 22.6094C8.92078 21.4255 9.18022 20.2242 9.81079 19.2102C10.4413 18.1962 11.404 17.4322 12.5347 17.0483C13.6654 16.6645 14.8943 16.6846 16.0119 17.1053C16.7235 17.3731 17.3621 17.7929 17.8862 18.3294C18.3841 18.8392 18.1632 19.644 17.5461 20.0002L16.8915 20.3782C15.896 20.953 16.0924 22.4445 17.2027 22.742L17.9328 22.9376Z" fill="white"></path></svg>