<svg xmlns="http://www.w3.org/2000/svg" width="199" height="38" viewBox="0 0 199 38" fill="none"><path d="M79.0436 7.34961H74.854V26.254H86.4521V22.5498H79.0436V7.34961Z" fill="#8D8D8D"></path><path d="M86.8521 19.842C86.8521 23.8784 89.56 26.5607 93.6474 26.5607C97.7092 26.5607 100.417 23.8784 100.417 19.842C100.417 15.8056 97.7092 13.0977 93.6474 13.0977C89.56 13.0977 86.8521 15.8056 86.8521 19.842ZM90.8117 19.8164C90.8117 17.9005 91.9358 16.6232 93.6474 16.6232C95.3335 16.6232 96.4576 17.9005 96.4576 19.8164C96.4576 21.758 95.3335 23.0353 93.6474 23.0353C91.9358 23.0353 90.8117 21.758 90.8117 19.8164Z" fill="#8D8D8D"></path><path d="M101.05 19.6374C101.05 23.4948 103.554 26.1005 107.105 26.1005C108.816 26.1005 110.298 25.4874 111.039 24.4912V26.2539C111.039 28.0166 109.94 29.1916 107.999 29.1916C106.262 29.1916 105.061 28.3742 104.984 26.9181H100.999C101.357 30.418 104.065 32.7681 107.769 32.7681C112.137 32.7681 114.896 29.9326 114.896 25.4363V13.4807H111.345L111.141 14.7835C110.426 13.7361 108.918 13.0464 107.181 13.0464C103.605 13.0464 101.05 15.7287 101.05 19.6374ZM105.035 19.5352C105.035 17.6957 106.262 16.4695 107.82 16.4695C109.634 16.4695 110.962 17.6702 110.962 19.5352C110.962 21.4001 109.659 22.6774 107.845 22.6774C106.287 22.6774 105.035 21.4001 105.035 19.5352Z" fill="#8D8D8D"></path><path d="M116.043 19.842C116.043 23.8784 118.751 26.5607 122.839 26.5607C126.901 26.5607 129.608 23.8784 129.608 19.842C129.608 15.8056 126.901 13.0977 122.839 13.0977C118.751 13.0977 116.043 15.8056 116.043 19.842ZM120.003 19.8164C120.003 17.9005 121.126 16.6232 122.839 16.6232C124.524 16.6232 125.648 17.9005 125.648 19.8164C125.648 21.758 124.524 23.0353 122.839 23.0353C121.126 23.0353 120.003 21.758 120.003 19.8164Z" fill="#8D8D8D"></path><path d="M133 11.4882C134.226 11.4882 135.222 10.4919 135.222 9.24012C135.222 7.98834 134.226 7.01758 133 7.01758C131.748 7.01758 130.752 7.98834 130.752 9.24012C130.752 10.4919 131.748 11.4882 133 11.4882ZM131.007 26.2541H134.967V13.4809H131.007V26.2541Z" fill="#8D8D8D"></path><path d="M137.272 32.3854H141.156V24.9769C141.896 25.9477 143.582 26.6119 145.345 26.6119C149.151 26.6119 151.45 23.6996 151.348 19.6633C151.246 15.5503 148.87 13.0723 145.319 13.0723C143.505 13.0723 141.794 13.8642 141.078 15.0394L140.874 13.481H137.272V32.3854ZM141.232 19.8676C141.232 17.9517 142.509 16.6744 144.348 16.6744C146.213 16.6744 147.388 17.9772 147.388 19.8676C147.388 21.7581 146.213 23.0609 144.348 23.0609C142.509 23.0609 141.232 21.7836 141.232 19.8676Z" fill="#8D8D8D"></path><path d="M151.768 22.2179C151.869 24.7981 153.914 26.5863 157.132 26.5863C160.224 26.5863 162.37 24.9513 162.37 22.3201C162.37 20.4297 161.246 19.1779 159.15 18.6669L156.878 18.1049C156.06 17.9006 155.549 17.6961 155.549 17.0319C155.549 16.3677 156.085 15.9334 156.878 15.9334C157.771 15.9334 158.358 16.521 158.334 17.3896H161.885C161.782 14.7327 159.764 13.0723 156.954 13.0723C154.118 13.0723 151.998 14.7583 151.998 17.313C151.998 19.0245 152.943 20.4297 155.472 21.0939L157.72 21.6814C158.384 21.8602 158.665 22.1668 158.665 22.601C158.665 23.2397 158.078 23.6485 157.081 23.6485C155.931 23.6485 155.318 23.112 155.318 22.2179H151.768Z" fill="#8D8D8D"></path><path d="M168.391 26.5862C169.95 26.5862 171.508 25.8709 172.3 24.8235L172.556 26.2542H176.26V13.481H172.326V20.1231C172.326 22.039 171.764 23.0863 169.95 23.0863C168.544 23.0863 167.625 22.4477 167.625 20.0719V13.481H163.69V21.5025C163.69 24.5426 165.377 26.5862 168.391 26.5862Z" fill="#8D8D8D"></path><path d="M182.498 26.2539V19.2797C182.498 17.1338 183.648 16.5207 184.772 16.5207C186.023 16.5207 186.841 17.2871 186.841 18.8709V26.2539H190.724V19.2797C190.724 17.1083 191.848 16.4952 192.972 16.4952C194.223 16.4952 195.067 17.2615 195.067 18.8709V26.2539H198.9V17.9002C198.9 14.9879 197.366 13.0464 194.07 13.0464C192.232 13.0464 190.724 13.9404 190.06 15.32C189.294 13.9404 187.965 13.0464 185.845 13.0464C184.44 13.0464 183.137 13.685 182.371 14.7069L182.218 13.4807H178.538V26.2539H182.498Z" fill="#8D8D8D"></path><path d="M0 18.7134C0 8.37829 8.37829 0 18.7134 0H43.2749C53.6101 0 61.9883 8.37829 61.9883 18.7134V37.4269H18.7134C8.37829 37.4269 0 29.0487 0 18.7134Z" fill="#8D8D8D"></path><path d="M43.2749 7.01758H18.7135C12.254 7.01758 7.01758 12.254 7.01758 18.7135C7.01758 25.173 12.254 30.4094 18.7135 30.4094H43.2749C49.7344 30.4094 54.9708 25.173 54.9708 18.7135C54.9708 12.254 49.7344 7.01758 43.2749 7.01758Z" fill="#8D8D8D"></path><path d="M18.7137 24.5616C21.9434 24.5616 24.5616 21.9434 24.5616 18.7137C24.5616 15.4839 21.9434 12.8657 18.7137 12.8657C15.4839 12.8657 12.8657 15.4839 12.8657 18.7137C12.8657 21.9434 15.4839 24.5616 18.7137 24.5616Z" fill="#8D8D8D"></path><path d="M16.3747 17.5438C17.0206 17.5438 17.5443 17.0201 17.5443 16.3742C17.5443 15.7282 17.0206 15.2046 16.3747 15.2046C15.7287 15.2046 15.2051 15.7282 15.2051 16.3742C15.2051 17.0201 15.7287 17.5438 16.3747 17.5438Z" fill="white"></path><path d="M44.4446 24.5616C47.6744 24.5616 50.2926 21.9434 50.2926 18.7137C50.2926 15.4839 47.6744 12.8657 44.4446 12.8657C41.2149 12.8657 38.5967 15.4839 38.5967 18.7137C38.5967 21.9434 41.2149 24.5616 44.4446 24.5616Z" fill="#8D8D8D"></path><path d="M42.1051 17.5438C42.7511 17.5438 43.2747 17.0201 43.2747 16.3742C43.2747 15.7282 42.7511 15.2046 42.1051 15.2046C41.4592 15.2046 40.9355 15.7282 40.9355 16.3742C40.9355 17.0201 41.4592 17.5438 42.1051 17.5438Z" fill="white"></path></svg>